<?xml version="1.0" encoding="iso-8859-1"?>
<!-- Uploaded to: SVG Repo, www.svgrepo.com, Generator: SVG Repo Mixer Tools -->
<svg height="800px" width="800px" version="1.1" id="Layer_1" xmlns="http://www.w3.org/2000/svg" xmlns:xlink="http://www.w3.org/1999/xlink" 
	 viewBox="0 0 512 512" xml:space="preserve">
<path style="fill:#FFCD54;" d="M0,256.006C0,397.402,114.606,512.004,255.996,512C397.394,512.004,512,397.402,512,256.006
	C512.009,114.61,397.394,0,255.996,0C114.606,0,0,114.614,0,256.006z"/>
<path style="fill:#F4BA41;" d="M501.338,329.158c-0.172-0.153-0.293-0.349-0.484-0.484
	c-0.405-0.566-154.246-154.455-154.903-154.894l-38.4-25.6c-1.05-0.7-2.288-1.075-3.55-1.075h-0.825l-0.123-0.191
	c-0.307-0.479-41.668-41.668-41.668-41.668c-2.356-3.668-8.412-3.668-10.768,0l-26.91,41.859H208c-1.262,0-2.5,0.375-3.55,1.075
	l-38.4,25.6c-2.347,1.565-3.394,4.481-2.575,7.178c0.416,1.378,1.276,2.524,2.386,3.325c0.411,0.58,48.217,48.265,48.539,48.564
	v3.857h-12.8c-1.263,0-2.5,0.375-3.55,1.075l-38.4,25.6c-2.347,1.566-3.393,4.481-2.575,7.179c0.417,1.378,1.276,2.524,2.387,3.325
	c0.411,0.58,0.918,1.077,1.489,1.489c0.411,0.58,41.054,41.228,41.597,41.631l-18.977,79.702H150.4c-3.534,0-6.4,2.865-6.4,6.4
	c0,2.153,1.134,3.965,2.764,5.123c0.416,0.586,103.299,103.331,103.628,103.63c1.87,0.039,3.725,0.141,5.604,0.141
	C371.966,512.002,469.858,434.893,501.338,329.158z"/>
<path style="fill:#F4F6F9;" d="M361.6,396.705h-33.521l-28.953-121.6H348.8c2.819,0,5.31-1.846,6.125-4.547
	c0.819-2.697-0.228-5.613-2.575-7.178l-38.4-25.6c-1.05-0.7-2.288-1.075-3.55-1.075h-12.8v-51.2h44.8
	c2.819,0,5.31-1.846,6.125-4.547c0.819-2.697-0.228-5.613-2.575-7.178l-38.4-25.6c-1.05-0.7-2.288-1.075-3.55-1.075h-15.706
	l-26.91-41.859c-2.356-3.668-8.413-3.668-10.769,0l-26.91,41.859H208c-1.263,0-2.5,0.375-3.55,1.075l-38.4,25.6
	c-2.347,1.566-3.394,4.481-2.575,7.178c0.816,2.7,3.307,4.547,6.125,4.547h44.8v51.2h-12.8c-1.263,0-2.5,0.375-3.55,1.075
	l-38.4,25.6c-2.347,1.566-3.394,4.481-2.575,7.178c0.816,2.7,3.307,4.547,6.125,4.547h49.324l-28.953,121.6H150.4
	c-3.534,0-6.4,2.866-6.4,6.4s2.866,6.4,6.4,6.4h211.2c3.534,0,6.4-2.866,6.4-6.4S365.134,396.705,361.6,396.705z M256.55,159.905
	l12.8,12.8h-26.7l12.8-12.8H256.55z M284.8,193.543v35.095l-19.33-17.572L284.8,193.543z M255.957,202.417l-18.604-16.912h37.26
	L255.957,202.417z M227.2,193.572l19.23,17.482l-19.23,17.433V193.572z M255.942,219.702l18.704,17.003h-37.46L255.942,219.702z
	 M262.526,249.505l10.24,12.8h-33.961l10.605-12.8H262.526z M287.969,283.506l21.751,91.348l-45.675-59.949L287.969,283.506z
	 M256,304.346l-22.278-29.241h44.557L256,304.346z M247.955,314.906l-46.183,60.617l21.994-92.366L247.955,314.906z M256,325.465
	l54.278,71.241H201.722L256,325.465z M327.663,262.305h-38.508l-10.24-12.8h29.548L327.663,262.305z M321.263,172.705h-33.812
	l-12.8-12.8h27.412L321.263,172.705z M256,120.54l17.078,26.565h-34.156L256,120.54z M190.737,172.705l19.2-12.8h27.412l-12.8,12.8
	H190.737z M203.537,249.505h29.248l-10.605,12.8h-37.843L203.537,249.505z"/>
</svg>